<?xml version="1.0" encoding="utf-8"?>
<!-- Generator: Adobe Illustrator 22.0.1, SVG Export Plug-In . SVG Version: 6.00 Build 0)  -->
<svg version="1.1" id="Layer_1" xmlns="http://www.w3.org/2000/svg" xmlns:xlink="http://www.w3.org/1999/xlink" x="0px" y="0px"
	 viewBox="0 0 378 147.9" style="enable-background:new 0 0 378 147.9;" xml:space="preserve">
<style type="text/css">
	.st0{fill:url(#SVGID_1_);}
	.st1{fill:url(#SVGID_2_);}
	.st2{fill:url(#SVGID_3_);}
	.st3{fill:url(#SVGID_4_);}
	.st4{fill:url(#SVGID_5_);}
	.st5{fill:url(#SVGID_6_);}
	.st6{fill:url(#SVGID_7_);}
	.st7{fill:url(#SVGID_8_);}
	.st8{fill:url(#SVGID_9_);}
	.st9{fill:url(#SVGID_10_);}
	.st10{fill:#A3A3A3;}
</style>
<g>
	<linearGradient id="SVGID_1_" gradientUnits="userSpaceOnUse" x1="351.5061" y1="151.8062" x2="0.8395" y2="57.8062">
		<stop  offset="0" style="stop-color:#F26D6F"/>
		<stop  offset="1" style="stop-color:#B74499"/>
	</linearGradient>
	<path class="st0" d="M0,80.3V40c0-0.3,0.1-0.6,0.3-0.8s0.5-0.4,0.8-0.4h14.7c2.8,0,5.6,0.6,8.2,1.7s4.9,2.6,6.8,4.6
		c1.9,1.9,3.4,4.2,4.5,6.8s1.7,5.4,1.7,8.2c0,2.3-0.4,4.6-1.1,6.7c-0.7,2.2-1.7,4.1-3,5.9c-1.3,1.7-2.8,3.3-4.6,4.6
		c-1.7,1.3-3.7,2.3-5.8,3.1s-4.4,1.1-6.7,1.1H1.1c-0.3,0-0.5-0.1-0.8-0.4S0,80.6,0,80.3z M9.6,72.6h5.8c3.4,0,6.2-1.2,8.5-3.6
		c2.3-2.4,3.4-5.3,3.4-8.8c0-3.5-1.1-6.4-3.4-8.8c-2.3-2.4-5.1-3.6-8.5-3.6H9.6V72.6z"/>
	<linearGradient id="SVGID_2_" gradientUnits="userSpaceOnUse" x1="354.1717" y1="141.8623" x2="3.505" y2="47.8623">
		<stop  offset="0" style="stop-color:#F26D6F"/>
		<stop  offset="1" style="stop-color:#B74499"/>
	</linearGradient>
	<path class="st1" d="M44.7,80.3V40c0-0.3,0.1-0.6,0.4-0.8s0.5-0.4,0.8-0.4h7.3c0.3,0,0.6,0.1,0.8,0.4s0.4,0.5,0.4,0.8v40.3
		c0,0.3-0.1,0.6-0.4,0.8s-0.5,0.4-0.8,0.4h-7.3c-0.3,0-0.6-0.1-0.8-0.4S44.7,80.6,44.7,80.3z"/>
	<linearGradient id="SVGID_3_" gradientUnits="userSpaceOnUse" x1="355.9226" y1="135.3307" x2="5.2559" y2="41.3307">
		<stop  offset="0" style="stop-color:#F26D6F"/>
		<stop  offset="1" style="stop-color:#B74499"/>
	</linearGradient>
	<path class="st2" d="M62,50.7c0-1.6,0.3-3.1,0.9-4.6c0.6-1.5,1.5-2.8,2.6-3.9s2.6-2.1,4.4-2.8c1.8-0.7,3.9-1.1,6.1-1.1
		c4.3,0,8.4,1.6,12.3,4.7c0.3,0.2,0.5,0.5,0.5,1c0,0.5,0,0.8-0.2,1l-2.9,4.8c-0.2,0.4-0.5,0.6-0.9,0.8c-0.4,0.2-0.7,0.2-1,0
		c0,0-0.3-0.2-0.7-0.5c-0.4-0.3-0.9-0.6-1.5-0.9c-0.5-0.3-1.1-0.6-1.8-1s-1.4-0.6-2.2-0.9C77,47.1,76.3,47,75.6,47
		c-1.1,0-2,0.3-2.7,0.9c-0.7,0.6-1.1,1.3-1.1,2.1c0,1.1,0.5,2.1,1.5,3s2.7,1.8,5.1,2.8c1.2,0.4,2.2,0.9,3,1.3
		c0.9,0.4,1.8,1.1,2.9,1.9c1.1,0.8,2,1.7,2.8,2.6c0.7,0.9,1.4,2,1.9,3.4c0.5,1.4,0.8,2.8,0.8,4.3s-0.3,3.1-0.9,4.6
		c-0.6,1.5-1.5,2.9-2.6,4.1S83.7,80.2,82,81c-1.7,0.7-3.6,1.1-5.6,1.1c-1.8,0-3.6-0.2-5.2-0.5c-1.6-0.3-3-0.8-4.1-1.3
		c-1.1-0.6-2-1.1-2.7-1.5c-0.7-0.5-1.2-0.9-1.7-1.4c-0.3-0.3-0.5-0.6-0.5-0.8s0-0.5,0.3-1l2.8-5.1c0.2-0.4,0.6-0.6,1.1-0.6
		c0.5,0,0.8,0,1,0.2l0.4,0.3c0.3,0.2,0.6,0.4,1,0.6c0.4,0.2,0.9,0.5,1.4,0.8c0.6,0.3,1.2,0.6,1.8,0.8c0.6,0.2,1.2,0.4,2,0.6
		s1.4,0.2,2,0.2c1.2,0,2.2-0.3,3-1c0.8-0.7,1.2-1.5,1.2-2.6c0-2.4-2.1-4.4-6.3-6c-1.2-0.4-2.2-0.9-3.3-1.4c-1-0.5-2.1-1.2-3.1-2
		c-1.1-0.8-2-1.7-2.8-2.6c-0.8-0.9-1.4-2-1.9-3.2C62.3,53.4,62,52.1,62,50.7z"/>
	<linearGradient id="SVGID_4_" gradientUnits="userSpaceOnUse" x1="360.1014" y1="119.7414" x2="9.4348" y2="25.7414">
		<stop  offset="0" style="stop-color:#F26D6F"/>
		<stop  offset="1" style="stop-color:#B74499"/>
	</linearGradient>
	<path class="st3" d="M240.4,111.5V71.2c0-0.3,0.1-0.6,0.3-0.8c0.2-0.2,0.5-0.3,0.8-0.3h25.2c0.3,0,0.6,0.1,0.8,0.3
		c0.2,0.2,0.3,0.5,0.3,0.8v6.7c0,0.3-0.1,0.6-0.3,0.8s-0.5,0.3-0.8,0.3h-16.8v7.5h13.8c0.3,0,0.6,0.1,0.8,0.4
		c0.2,0.2,0.3,0.5,0.3,0.8v6.7c0,0.3-0.1,0.6-0.3,0.8c-0.2,0.2-0.5,0.3-0.8,0.3h-13.8v8.2h16.8c0.3,0,0.6,0.1,0.8,0.3
		c0.2,0.2,0.3,0.5,0.3,0.8v6.6c0,0.3-0.1,0.6-0.3,0.8c-0.2,0.2-0.5,0.3-0.8,0.3h-25.2c-0.3,0-0.6-0.1-0.8-0.3
		C240.5,112.1,240.4,111.8,240.4,111.5z"/>
	<linearGradient id="SVGID_5_" gradientUnits="userSpaceOnUse" x1="362.5906" y1="110.4557" x2="11.9239" y2="16.4557">
		<stop  offset="0" style="stop-color:#F26D6F"/>
		<stop  offset="1" style="stop-color:#B74499"/>
	</linearGradient>
	<path class="st4" d="M271.6,77.8v-6.7c0-0.3,0.1-0.6,0.3-0.8c0.2-0.2,0.5-0.3,0.8-0.3h27.1c0.3,0,0.6,0.1,0.8,0.3
		c0.2,0.2,0.3,0.5,0.3,0.8v6.7c0,0.3-0.1,0.6-0.3,0.8s-0.5,0.3-0.8,0.3h-8.8v32.5c0,0.3-0.1,0.6-0.4,0.8s-0.5,0.4-0.8,0.4h-7.3
		c-0.3,0-0.6-0.1-0.8-0.4s-0.4-0.5-0.4-0.8V79h-8.7c-0.3,0-0.6-0.1-0.8-0.3C271.7,78.4,271.6,78.1,271.6,77.8z"/>
	<linearGradient id="SVGID_6_" gradientUnits="userSpaceOnUse" x1="364.5718" y1="103.0646" x2="13.9052" y2="9.0646">
		<stop  offset="0" style="stop-color:#F26D6F"/>
		<stop  offset="1" style="stop-color:#B74499"/>
	</linearGradient>
	<path class="st5" d="M307,111.5V71.2c0-0.3,0.1-0.6,0.3-0.8c0.2-0.2,0.5-0.3,0.8-0.3h25.2c0.3,0,0.6,0.1,0.8,0.3
		c0.2,0.2,0.3,0.5,0.3,0.8v6.7c0,0.3-0.1,0.6-0.3,0.8s-0.5,0.3-0.8,0.3h-16.8v7.5h13.8c0.3,0,0.6,0.1,0.8,0.4
		c0.2,0.2,0.3,0.5,0.3,0.8v6.7c0,0.3-0.1,0.6-0.3,0.8c-0.2,0.2-0.5,0.3-0.8,0.3h-13.8v8.2h16.8c0.3,0,0.6,0.1,0.8,0.3
		c0.2,0.2,0.3,0.5,0.3,0.8v6.6c0,0.3-0.1,0.6-0.3,0.8c-0.2,0.2-0.5,0.3-0.8,0.3h-25.2c-0.3,0-0.6-0.1-0.8-0.3
		C307.2,112.1,307,111.8,307,111.5z"/>
	<linearGradient id="SVGID_7_" gradientUnits="userSpaceOnUse" x1="366.785" y1="94.8083" x2="16.1184" y2="0.8083">
		<stop  offset="0" style="stop-color:#F26D6F"/>
		<stop  offset="1" style="stop-color:#B74499"/>
	</linearGradient>
	<path class="st6" d="M342.7,111.5V71.2c0-0.3,0.1-0.6,0.3-0.8c0.2-0.2,0.5-0.3,0.8-0.3h18.3c2.4,0,4.6,0.6,6.7,1.8
		c2,1.2,3.7,2.8,4.9,4.8c1.2,2,1.8,4.2,1.8,6.6c0,2.8-0.8,5.2-2.5,7.4c-1.7,2.2-3.9,3.8-6.6,4.9l8.4,15.4c0.2,0.4,0.2,0.8,0,1.2
		s-0.5,0.6-1,0.6h-8.2c-0.5,0-0.8-0.2-1-0.5l-8.1-16h-4.2v15.4c0,0.3-0.1,0.6-0.4,0.8c-0.2,0.2-0.5,0.4-0.8,0.4h-7.3
		c-0.3,0-0.6-0.1-0.8-0.3C342.8,112.1,342.7,111.8,342.7,111.5z M352.3,88.2h9c1.2,0,2.3-0.5,3.2-1.5c0.9-1,1.4-2.1,1.4-3.4
		c0-1.3-0.5-2.4-1.4-3.3c-0.9-0.9-2-1.4-3.2-1.4h-9V88.2z"/>
	<linearGradient id="SVGID_8_" gradientUnits="userSpaceOnUse" x1="356.881" y1="131.7554" x2="6.2143" y2="37.7554">
		<stop  offset="0" style="stop-color:#F26D6F"/>
		<stop  offset="1" style="stop-color:#B74499"/>
	</linearGradient>
	<path class="st7" d="M225.3,69.7c-0.2-0.2-0.5-0.3-0.7-0.3h-1c-0.2,0-0.4,0.1-0.6,0.2s-0.4,0.3-0.5,0.4l-14.1,26.3h-0.1l-11.5-21.5
		l-7.8,7.8l-4.8,28.7c-0.1,0.4,0,0.7,0.3,1c0.2,0.2,0.5,0.4,0.9,0.4h7.2c0.3,0,0.5-0.1,0.8-0.3c0.2-0.2,0.4-0.4,0.4-0.7l2.7-18.8
		h0.1l10.3,19.7c0.1,0.2,0.2,0.3,0.4,0.5c0.2,0.1,0.4,0.2,0.6,0.2h1.1c0.2,0,0.3-0.1,0.6-0.2c0.2-0.1,0.4-0.3,0.4-0.5l10.2-19.7h0.1
		l2.8,18.8c0,0.2,0.2,0.5,0.4,0.7s0.5,0.3,0.7,0.3h7.2c0.4,0,0.7-0.1,0.9-0.4c0.2-0.2,0.3-0.6,0.3-1l-6.9-40.9
		C225.7,70.2,225.6,69.9,225.3,69.7z"/>
	<linearGradient id="SVGID_9_" gradientUnits="userSpaceOnUse" x1="358.655" y1="125.1373" x2="7.9883" y2="31.1373">
		<stop  offset="0" style="stop-color:#F26D6F"/>
		<stop  offset="1" style="stop-color:#B74499"/>
	</linearGradient>
	<path class="st8" d="M99.3,81.5h7.3c0.3,0,0.6-0.1,0.8-0.3c0.2-0.2,0.3-0.5,0.3-0.8v-16h17.4v15l9.6-9.6V40c0-0.3-0.1-0.6-0.4-0.8
		s-0.5-0.4-0.8-0.4h-7.3c-0.3,0-0.6,0.1-0.8,0.3c-0.2,0.2-0.3,0.5-0.3,0.8v15.3h-17.4V40c0-0.3-0.1-0.6-0.3-0.8
		c-0.2-0.2-0.5-0.3-0.8-0.3h-7.3c-0.3,0-0.6,0.1-0.8,0.4c-0.2,0.2-0.4,0.5-0.4,0.8v40.3c0,0.3,0.1,0.6,0.4,0.8
		C98.7,81.4,99,81.5,99.3,81.5z"/>
	<linearGradient id="SVGID_10_" gradientUnits="userSpaceOnUse" x1="358.3978" y1="126.0969" x2="7.7311" y2="32.0969">
		<stop  offset="0" style="stop-color:#F26D6F"/>
		<stop  offset="1" style="stop-color:#B74499"/>
	</linearGradient>
	<path class="st9" d="M90.1,121.3l26.7,26.7L238.1,26.7L211.4,0L90.1,121.3z M232.2,26.7L116.8,142.1l-20.7-20.7l3.8-3.8l14.2,14.2
		l3-3l-14.2-14.2l3.9-3.9l7.6,7.6l3-3l-7.6-7.6l4.2-4.2l7.6,7.6l3-3l-7.6-7.6l4.3-4.3l7.6,7.6l3-3l-7.6-7.6l3.9-3.9l7.6,7.6l3-3
		l-7.6-7.6l3.7-3.7L149,96.9l3-3l-14.2-14.2l3.9-3.9l7.6,7.6l3-3l-7.6-7.6l4.2-4.2l7.6,7.6l3-3l-7.6-7.6l4.3-4.3l7.6,7.6l3-3
		l-7.6-7.6l3.9-3.9l7.6,7.6l3-3l-7.6-7.6l3.8-3.8L184,61.9l3-3l-14.2-14.2l3.9-3.9l7.6,7.6l3-3l-7.6-7.6l4.2-4.2l7.6,7.6l3-3
		l-7.6-7.6l4.3-4.3l7.6,7.6l3-3l-7.6-7.6l3.9-3.9l7.6,7.6l3-3l-7.6-7.6l3.7-3.7l14.2,14.2l3-3L207.7,9.7l3.8-3.8L232.2,26.7z"/>
</g>
<g>
	<path class="st10" d="M343.9,60.1v-9.3c0-0.1,0-0.1,0.1-0.2s0.1-0.1,0.2-0.1h3.2c0.8,0,1.5,0.3,2.1,0.8c0.6,0.5,0.9,1.1,0.9,1.8
		c0,0.3-0.1,0.5-0.2,0.7c-0.1,0.2-0.2,0.5-0.4,0.6c-0.2,0.2-0.3,0.3-0.5,0.5c-0.2,0.1-0.3,0.3-0.5,0.3c0.2,0.1,0.4,0.2,0.6,0.3
		s0.4,0.3,0.6,0.5c0.2,0.2,0.3,0.4,0.5,0.7s0.2,0.5,0.2,0.8c0,0.5-0.1,1-0.4,1.4c-0.3,0.4-0.6,0.7-1.1,1s-1,0.3-1.5,0.3h-3.4
		c-0.1,0-0.1,0-0.2-0.1S343.9,60.1,343.9,60.1z M346.1,54.5h1.1c0.3,0,0.5-0.1,0.7-0.3c0.2-0.2,0.3-0.4,0.3-0.7
		c0-0.3-0.1-0.5-0.3-0.7c-0.2-0.2-0.4-0.3-0.7-0.3h-1.1V54.5z M346.1,58.3h1.3c0.3,0,0.5-0.1,0.7-0.3c0.2-0.2,0.3-0.4,0.3-0.7
		c0-0.3-0.1-0.5-0.4-0.7c-0.2-0.2-0.5-0.3-0.8-0.3h-1.1V58.3z"/>
	<path class="st10" d="M352.5,60.1v-9.3c0-0.1,0-0.1,0.1-0.2c0-0.1,0.1-0.1,0.2-0.1h5.8c0.1,0,0.1,0,0.2,0.1c0,0.1,0.1,0.1,0.1,0.2
		v1.5c0,0.1,0,0.1-0.1,0.2c0,0.1-0.1,0.1-0.2,0.1h-3.9v1.7h3.2c0.1,0,0.1,0,0.2,0.1c0.1,0.1,0.1,0.1,0.1,0.2v1.5
		c0,0.1,0,0.1-0.1,0.2s-0.1,0.1-0.2,0.1h-3.2v1.9h3.9c0.1,0,0.1,0,0.2,0.1c0,0.1,0.1,0.1,0.1,0.2v1.5c0,0.1,0,0.1-0.1,0.2
		c-0.1,0.1-0.1,0.1-0.2,0.1h-5.8c-0.1,0-0.1,0-0.2-0.1C352.5,60.2,352.5,60.1,352.5,60.1z"/>
	<path class="st10" d="M359.7,52.3v-1.5c0-0.1,0-0.1,0.1-0.2s0.1-0.1,0.2-0.1h6.2c0.1,0,0.1,0,0.2,0.1c0,0.1,0.1,0.1,0.1,0.2v1.5
		c0,0.1,0,0.1-0.1,0.2c0,0.1-0.1,0.1-0.2,0.1h-2v7.5c0,0.1,0,0.1-0.1,0.2c-0.1,0.1-0.1,0.1-0.2,0.1h-1.7c-0.1,0-0.1,0-0.2-0.1
		s-0.1-0.1-0.1-0.2v-7.5h-2c-0.1,0-0.1,0-0.2-0.1C359.7,52.4,359.7,52.4,359.7,52.3z"/>
	<path class="st10" d="M366,60l4.4-9.4c0.1-0.1,0.1-0.2,0.2-0.2h0.1c0.1,0,0.2,0.1,0.2,0.2l4.4,9.4c0,0.1,0,0.2,0,0.2
		s-0.1,0.1-0.2,0.1h-1.6c-0.1,0-0.2,0-0.3-0.1c-0.1-0.1-0.1-0.2-0.2-0.3l-0.5-1.2h-3.8l-0.5,1.2c-0.1,0.2-0.3,0.4-0.5,0.4h-1.5
		c-0.1,0-0.2,0-0.2-0.1C366,60.1,366,60,366,60z M369.7,57h2.1l-1.1-2.3h0L369.7,57z"/>
</g>
</svg>
