<?xml version="1.0" encoding="UTF-8"?>
<svg width="200px" height="49px" viewBox="0 0 200 49" version="1.1" xmlns="http://www.w3.org/2000/svg" xmlns:xlink="http://www.w3.org/1999/xlink">
    <!-- Generator: Sketch 47.1 (45422) - http://www.bohemiancoding.com/sketch -->
    <title>Brand</title>
    <desc>Created with Sketch.</desc>
    <defs></defs>
    <g id="APP" stroke="none" stroke-width="1" fill="none" fill-rule="evenodd">
        <g id="Login" transform="translate(-88.000000, -73.000000)" fill="#FFFFFF">
            <g id="Brand" transform="translate(88.000000, 73.000000)">
                <g id="skip_logo_knockout">
                    <g id="XMLID_41_" fill-rule="nonzero">
                        <path d="M7.7,35.6 C7.7,39.7 10.6,41.5 14.1,41.5 C17.6,41.5 20.5,39.8 20.5,35.7 L20.5,35.6 C20.5,25.5 0.4,30.5 0.4,13.4 L0.4,13.3 C0.4,5.3 6,0.6 14,0.6 C22,0.6 27.6,5.4 27.6,13.4 L27.6,13.5 C27.6,15.2 26.7,16 25.1,16 L22.2,16 C20.7,16 19.9,15.2 19.9,13.7 L19.9,13.5 C19.9,9.8 17.4,7.8 14,7.8 C10.5,7.8 8.1,9.8 8.1,13.5 L8.1,13.6 C8.1,23.7 28.2,18.7 28.2,35.9 L28.2,36 C28.2,44.1 22.3,48.7 13.9,48.7 C5.9,48.7 1.77635684e-15,43.9 1.77635684e-15,35.9 L1.77635684e-15,35.6 C1.77635684e-15,33.9 0.9,33.1 2.5,33.1 L5.4,33.1 C6.9,33.1 7.7,33.9 7.7,35.4 L7.7,35.6 Z" id="XMLID_49_"></path>
                        <path d="M36.4,1.3 L39,1.3 C40.7,1.3 41.5,2.2 41.5,3.8 L41.5,21.9 L54.5,3.1 C55.3,2 56.1,1.3 57.8,1.3 L61.5,1.3 C63.2,1.3 63.6,3.2 62.8,4.4 L50.3,21.1 L63.1,45 C63.8,46.3 63.2,47.9 61.5,47.9 L58.2,47.9 C56.5,47.9 55.6,47.4 54.9,45.8 L45.6,27.4 L41.7,32.7 L41.7,45.4 C41.7,47.1 40.8,47.9 39.2,47.9 L36.6,47.9 C34.9,47.9 34.1,47 34.1,45.4 L34.1,3.9 C33.9,2.2 34.8,1.3 36.4,1.3 Z" id="XMLID_47_"></path>
                        <path d="M72,1.3 L74.6,1.3 C76.3,1.3 77.1,2.2 77.1,3.8 L77.1,45.4 C77.1,47.1 76.2,47.9 74.6,47.9 L72,47.9 C70.3,47.9 69.5,47 69.5,45.4 L69.5,3.9 C69.4,2.2 70.3,1.3 72,1.3 Z" id="XMLID_45_"></path>
                        <path d="M84.8,3.9 C84.8,2.2 85.7,1.4 87.3,1.4 L99.6,1.4 C107.7,1.4 112.6,5.9 112.6,14.4 L112.6,17.4 C112.6,25.9 107.7,30.4 99.6,30.4 L92.4,30.4 L92.4,45.5 C92.4,47.2 91.5,48 89.9,48 L87.3,48 C85.6,48 84.8,47.1 84.8,45.5 L84.8,3.9 Z M92.5,8.6 L92.5,23.1 L98.7,23.1 C102.8,23.1 105,21.6 105,16.8 L105,15 C105,10.2 102.8,8.7 98.7,8.7 L92.5,8.7 L92.5,8.6 Z" id="XMLID_42_"></path>
                    </g>
                    <g id="XMLID_18_" transform="translate(119.000000, 1.000000)" fill-rule="nonzero">
                        <g id="XMLID_33_">
                            <path d="M4.6,21.7 C1.7,21.7 0.1,20.5 0.1,17.2 L0.1,2.8 C0.1,2.1 0.5,1.7 1.2,1.7 L2.3,1.7 C3,1.7 3.4,2.1 3.4,2.8 L3.4,5.6 L6,5.6 C6.7,5.6 7.1,6 7.1,6.7 L7.1,7.6 C7.1,8.3 6.7,8.7 6,8.7 L3.4,8.7 L3.4,17 C3.4,18.2 3.8,18.7 5.1,18.7 C5.4,18.7 5.7,18.7 6,18.6 C6.7,18.5 7.1,18.9 7.1,19.7 L7.1,20.6 C7.1,21.3 6.7,21.6 6.2,21.7 C5.6,21.7 5.1,21.7 4.6,21.7 Z" id="XMLID_39_"></path>
                            <path d="M12.2,20.5 C12.2,21.2 11.8,21.6 11.1,21.6 L10,21.6 C9.3,21.6 8.9,21.2 8.9,20.5 L8.9,1.1 C8.9,0.4 9.3,0 10,0 L11.1,0 C11.8,0 12.2,0.4 12.2,1.1 L12.2,6.5 C12.9,5.6 14,5.2 15.2,5.2 C17.7,5.2 19.5,6.8 19.5,10.2 L19.5,20.4 C19.5,21.1 19.1,21.5 18.4,21.5 L17.3,21.5 C16.6,21.5 16.2,21.1 16.2,20.4 L16.2,10.8 C16.2,8.9 15.3,8.3 14.2,8.3 C13.1,8.3 12.2,8.9 12.2,10.8 L12.2,20.5 L12.2,20.5 Z" id="XMLID_37_"></path>
                            <path d="M30,16.2 L31.2,16.2 C31.9,16.2 32.3,16.6 32.3,17.3 C32.3,20 30.2,21.9 27.1,21.9 C24.1,21.9 21.8,20.1 21.8,16.5 L21.8,10.6 C21.8,7 24.1,5.2 27.1,5.2 C30.1,5.2 32.4,7 32.4,10.6 L32.4,13.2 C32.4,13.9 32,14.3 31.3,14.3 L25.1,14.3 L25.1,16.3 C25.1,18.2 26,18.8 27.1,18.8 C28.3,18.8 29,18.1 29,17.1 C29.1,16.5 29.4,16.2 30,16.2 Z M25.1,11.8 L29.2,11.8 L29.2,10.8 C29.2,8.9 28.3,8.3 27.2,8.3 C26.1,8.3 25.2,8.9 25.2,10.8 L25.2,11.8 L25.1,11.8 Z" id="XMLID_34_"></path>
                        </g>
                        <g id="XMLID_19_" transform="translate(0.000000, 25.000000)">
                            <path d="M0.1,2.2 C0.1,1.4 0.5,1 1.3,1 L6.5,1 C10.3,1 13.1,2.9 13.1,7.3 L13.1,15.9 C13.1,20.3 10.3,22.2 6.5,22.2 L1.3,22.2 C0.5,22.2 0.1,21.8 0.1,21 L0.1,2.2 Z M6.4,4.3 L3.6,4.3 L3.6,18.9 L6.4,18.9 C8.1,18.9 9.6,18.4 9.6,15.5 L9.6,7.6 C9.5,4.9 8.1,4.3 6.4,4.3 Z" id="XMLID_30_"></path>
                            <path d="M17.2,1 L18.4,1 C19.2,1 19.6,1.4 19.6,2.2 L19.6,21.1 C19.6,21.9 19.2,22.3 18.4,22.3 L17.2,22.3 C16.4,22.3 16,21.9 16,21.1 L16,2.2 C16,1.4 16.4,1 17.2,1 Z" id="XMLID_28_"></path>
                            <path d="M25.6,16.6 C25.6,18.5 26.9,19.3 28.5,19.3 C30.1,19.3 31.4,18.5 31.4,16.7 L31.4,16.7 C31.4,12.1 22.3,14.4 22.3,6.6 L22.3,6.6 C22.3,3 24.8,0.8 28.5,0.8 C32.1,0.8 34.7,3 34.7,6.6 L34.7,6.7 C34.7,7.5 34.3,7.9 33.5,7.9 L32.2,7.9 C31.5,7.9 31.2,7.5 31.2,6.9 L31.2,6.8 C31.2,5.1 30.1,4.2 28.5,4.2 C26.9,4.2 25.8,5.1 25.8,6.8 L25.8,6.8 C25.8,11.4 34.9,9.1 34.9,16.9 L34.9,16.9 C34.9,20.6 32.2,22.7 28.4,22.7 C24.8,22.7 22.1,20.5 22.1,16.9 L22.1,16.8 C22.1,16 22.5,15.6 23.3,15.6 L24.6,15.6 C25.3,15.5 25.6,15.8 25.6,16.6 L25.6,16.6 Z" id="XMLID_26_"></path>
                            <path d="M39.3,1 L40.5,1 C41.3,1 41.7,1.4 41.7,2.2 L41.7,9.8 L47.9,9.8 L47.9,2.2 C47.9,1.4 48.3,1 49.1,1 L50.3,1 C51.1,1 51.5,1.4 51.5,2.2 L51.5,21.1 C51.5,21.9 51.1,22.3 50.3,22.3 L49,22.3 C48.2,22.3 47.8,21.9 47.8,21.1 L47.8,13.1 L41.6,13.1 L41.6,21.1 C41.6,21.9 41.2,22.3 40.4,22.3 L39.2,22.3 C38.4,22.3 38,21.9 38,21.1 L38,2.2 C38.2,1.4 38.6,1 39.3,1 Z" id="XMLID_24_"></path>
                            <path d="M54.8,2.2 C54.8,1.4 55.2,1 56,1 L65.6,1 C66.4,1 66.8,1.4 66.8,2.2 L66.8,3.2 C66.8,4 66.4,4.4 65.6,4.4 L58.3,4.4 L58.3,9.9 L63.9,9.9 C64.7,9.9 65.1,10.3 65.1,11.1 L65.1,12.1 C65.1,12.9 64.7,13.3 63.9,13.3 L58.3,13.3 L58.3,19.1 L65.6,19.1 C66.4,19.1 66.8,19.5 66.8,20.3 L66.8,21.3 C66.8,22.1 66.4,22.5 65.6,22.5 L56,22.5 C55.2,22.5 54.8,22.1 54.8,21.3 L54.8,2.2 Z" id="XMLID_22_"></path>
                            <path d="M71.7,16.6 C71.7,18.5 73,19.3 74.6,19.3 C76.2,19.3 77.5,18.5 77.5,16.7 L77.5,16.7 C77.5,12.1 68.4,14.4 68.4,6.6 L68.4,6.6 C68.4,3 70.9,0.8 74.6,0.8 C78.2,0.8 80.8,3 80.8,6.6 L80.8,6.7 C80.8,7.5 80.4,7.9 79.6,7.9 L78.3,7.9 C77.6,7.9 77.3,7.5 77.3,6.9 L77.3,6.8 C77.3,5.1 76.2,4.2 74.6,4.2 C73,4.2 71.9,5.1 71.9,6.8 L71.9,6.8 C71.9,11.4 81,9.1 81,16.9 L81,16.9 C81,20.6 78.3,22.7 74.5,22.7 C70.9,22.7 68.2,20.5 68.2,16.9 L68.2,16.8 C68.2,16 68.6,15.6 69.4,15.6 L70.7,15.6 C71.4,15.5 71.7,15.8 71.7,16.6 L71.7,16.6 Z" id="XMLID_20_"></path>
                        </g>
                    </g>
                </g>
            </g>
        </g>
    </g>
</svg>