<?xml version="1.0" encoding="UTF-8"?>
<svg width="55px" height="55px" viewBox="0 0 55 55" version="1.1" xmlns="http://www.w3.org/2000/svg" xmlns:xlink="http://www.w3.org/1999/xlink">
    <!-- Generator: Sketch 47.1 (45422) - http://www.bohemiancoding.com/sketch -->
    <title>thumbs-up</title>
    <desc>Created with Sketch.</desc>
    <defs></defs>
    <g id="APP" stroke="none" stroke-width="1" fill="none" fill-rule="evenodd">
        <g id="TasteMeter-–-Suggestions" transform="translate(-288.000000, -545.000000)">
            <g id="Group-3" transform="translate(33.000000, 545.000000)">
                <g id="thumbs-up" transform="translate(255.000000, 0.000000)">
                    <circle id="Oval" fill="#1FC52B" cx="27.5" cy="27.5" r="27.5"></circle>
                    <path d="M17.773815,35.0714245 C17.773815,34.4464237 17.2559572,33.928566 16.6309565,33.928566 C16.0059557,33.928566 15.488098,34.4464237 15.488098,35.0714245 C15.488098,35.6964252 16.0059557,36.214283 16.6309565,36.214283 C17.2559572,36.214283 17.773815,35.6964252 17.773815,35.0714245 Z M38.3452681,24.7856979 C38.3452681,23.5714108 37.2559811,22.4999809 36.0595511,22.4999809 L29.7738293,22.4999809 C29.7738293,20.4106927 31.488117,18.8928338 31.488117,16.7856884 C31.488117,14.6964002 31.0774023,13.3571129 28.6309708,13.3571129 C27.4881123,14.5178286 28.0773987,17.2499747 26.3452538,19.0714054 C25.8452532,19.5892632 25.4166812,20.1428353 24.9702521,20.6964073 C24.1666797,21.7321229 22.0416772,24.7856979 20.6309612,24.7856979 L20.059532,24.7856979 L20.059532,36.214283 L20.6309612,36.214283 C21.6309624,36.214283 23.2738215,36.8571409 24.2381084,37.196427 C26.2023964,37.8749993 28.2381132,38.5 30.3452585,38.5 L32.5059754,38.5 C34.5238349,38.5 35.9345509,37.6964276 35.9345509,35.5178536 C35.9345509,35.1785675 35.8988366,34.8392814 35.8452651,34.5178524 C36.595266,34.1071376 37.0059808,33.0892793 37.0059808,32.2678497 C37.0059808,31.8392778 36.8988378,31.4107058 36.6845518,31.0357054 C37.2916954,30.4642761 37.6309815,29.7499896 37.6309815,28.9107029 C37.6309815,28.3392736 37.3809812,27.4999869 37.0059808,27.0714149 C37.8452675,27.0535578 38.3452681,25.446413 38.3452681,24.7856979 Z M40.6309851,24.7678408 C40.6309851,25.8035563 40.3274133,26.8214146 39.755984,27.6785585 C39.863127,28.0714161 39.9166985,28.4999881 39.9166985,28.9107029 C39.9166985,29.8035611 39.6845554,30.6964193 39.2381263,31.4821345 C39.2738406,31.7321348 39.2916978,31.9999923 39.2916978,32.2499925 C39.2916978,33.3928511 38.9166973,34.5357096 38.2202679,35.4285678 C38.2559822,38.8035718 35.9524081,40.785717 32.6488327,40.785717 L30.3452585,40.785717 C27.8095412,40.785717 25.4523956,40.0357161 23.0952499,39.2142866 C22.5773921,39.0357149 21.1309618,38.5 20.6309612,38.5 L15.488098,38.5 C14.2202393,38.5 13.202381,37.4821416 13.202381,36.214283 L13.202381,24.7856979 C13.202381,23.5178393 14.2202393,22.4999809 15.488098,22.4999809 L20.3809609,22.4999809 C21.0773903,22.0356947 22.2916775,20.4285499 22.8273924,19.7321205 C23.434536,18.9464053 24.0595368,18.1785472 24.738109,17.4464035 C25.8095388,16.303545 25.2381096,13.482113 27.023826,11.7321109 C27.4523979,11.3213962 28.0238272,11.0713959 28.6309708,11.0713959 C30.4881158,11.0713959 32.2738323,11.7321109 33.1488333,13.4642559 C33.7024054,14.5535429 33.773834,15.5892584 33.773834,16.7856884 C33.773834,18.0356899 33.4524051,19.1071197 32.9166902,20.2142639 L36.0595511,20.2142639 C38.5238397,20.2142639 40.6309851,22.3035521 40.6309851,24.7678408 Z" id="" fill="#FFFFFF"></path>
                </g>
            </g>
        </g>
    </g>
</svg>