<?xml version="1.0" encoding="UTF-8"?>
<svg width="55px" height="55px" viewBox="0 0 55 55" version="1.1" xmlns="http://www.w3.org/2000/svg" xmlns:xlink="http://www.w3.org/1999/xlink">
    <!-- Generator: Sketch 47.1 (45422) - http://www.bohemiancoding.com/sketch -->
    <title>thumbs-down</title>
    <desc>Created with Sketch.</desc>
    <defs></defs>
    <g id="APP" stroke="none" stroke-width="1" fill="none" fill-rule="evenodd">
        <g id="TasteMeter-–-Suggestions" transform="translate(-33.000000, -545.000000)">
            <g id="Group-3" transform="translate(33.000000, 545.000000)">
                <g id="thumbs-down">
                    <circle id="Oval" fill-opacity="0.61" fill="#CCCCCC" cx="27.5" cy="27.5" r="27.5"></circle>
                    <path d="M19.1071483,19.0714054 C19.1071483,18.4464047 18.5892905,17.9285469 17.9642898,17.9285469 C17.3392891,17.9285469 16.8214313,18.4464047 16.8214313,19.0714054 C16.8214313,19.6964062 17.3392891,20.2142639 17.9642898,20.2142639 C18.5892905,20.2142639 19.1071483,19.6964062 19.1071483,19.0714054 Z M39.6786014,29.357132 C39.6786014,28.6964169 39.1786008,27.0892721 38.3393141,27.0714149 C38.7143145,26.642843 38.9643148,25.8035563 38.9643148,25.232127 C38.9643148,24.3928403 38.6250287,23.6785538 38.0178851,23.1071245 C38.2321711,22.7321241 38.3393141,22.3035521 38.3393141,21.8749802 C38.3393141,21.0535506 37.9285993,20.0356923 37.1785984,19.6249775 C37.2321699,19.3035485 37.2678842,18.9642624 37.2678842,18.6249763 C37.2678842,16.5356881 35.9464541,15.6428299 33.9643089,15.6428299 L31.6785919,15.6428299 C29.5714465,15.6428299 27.5357298,16.2678306 25.5714417,16.9464029 C24.6071549,17.285689 22.9642958,17.9285469 21.9642946,17.9285469 L21.3928653,17.9285469 L21.3928653,29.357132 L21.9642946,29.357132 C23.3750105,29.357132 25.5000131,32.410707 26.3035855,33.4464225 C26.7500146,33.9999946 27.1785865,34.5535667 27.6785871,35.0714245 C29.410732,36.8928552 28.8214456,39.6250013 29.9643041,40.785717 C32.4107356,40.785717 32.8214504,39.4464297 32.8214504,37.3571415 C32.8214504,35.2499961 31.1071626,33.7321372 31.1071626,31.642849 L37.3928844,31.642849 C38.5893144,31.642849 39.6786014,30.5714191 39.6786014,29.357132 Z M41.9643184,29.3749891 C41.9643184,31.8392778 39.857173,33.928566 37.3928844,33.928566 L34.2500235,33.928566 C34.7857384,35.0357102 35.1071674,36.10714 35.1071674,37.3571415 C35.1071674,38.5357143 35.0357387,39.6071442 34.4821666,40.678574 C33.6071656,42.4107189 31.8214492,43.071434 29.9643041,43.071434 C29.3571605,43.071434 28.7857313,42.8214337 28.3571593,42.4107189 C26.5714429,40.6607169 27.125015,37.8392849 26.0714423,36.6785693 C25.3928701,35.9642827 24.7678693,35.1964246 24.1607258,34.4107094 C23.6250108,33.71428 22.4107237,32.1071352 21.7142943,31.642849 L16.8214313,31.642849 C15.5535726,31.642849 14.5357143,30.6249906 14.5357143,29.357132 L14.5357143,17.9285469 C14.5357143,16.6606883 15.5535726,15.6428299 16.8214313,15.6428299 L21.9642946,15.6428299 C22.4642952,15.6428299 23.9107255,15.107115 24.4285832,14.9285433 C27.0000149,14.0356851 29.2321604,13.3571129 31.9821637,13.3571129 L33.982166,13.3571129 C37.2321699,13.3571129 39.5714584,15.2856866 39.5536013,18.6249763 L39.5536013,18.7142621 C40.2500307,19.6071203 40.6250311,20.7499788 40.6250311,21.8928373 C40.6250311,22.1428376 40.6071739,22.4106951 40.5714596,22.6606954 C41.0178887,23.4464106 41.2500318,24.3392688 41.2500318,25.232127 C41.2500318,25.6428418 41.1964604,26.0714138 41.0893174,26.4642714 C41.6607466,27.3214152 41.9643184,28.3392736 41.9643184,29.3749891 Z" id="" fill="#FFFFFF"></path>
                </g>
            </g>
        </g>
    </g>
</svg>